<mxfile host="app.diagrams.net" modified="2020-06-29T12:59:53.069Z" agent="5.0 (Windows NT 6.1; Win64; x64) AppleWebKit/537.36 (KHTML, like Gecko) Chrome/83.0.4103.116 Safari/537.36" etag="7az97BPfTTrK_SeIxS1E" version="13.3.5" type="github">
  <diagram id="ppNwywsPstjIZ1vi7Pwg" name="Page-1">
    <mxGraphModel dx="1422" dy="762" grid="1" gridSize="10" guides="1" tooltips="1" connect="1" arrows="1" fold="1" page="1" pageScale="1" pageWidth="827" pageHeight="1169" math="0" shadow="0">
      <root>
        <mxCell id="0" />
        <mxCell id="1" parent="0" />
        <mxCell id="BPgtZbZkgOXDXsZjRvmb-34" value="" style="rounded=0;whiteSpace=wrap;html=1;rotation=90;fillColor=#dae8fc;strokeColor=#6c8ebf;" parent="1" vertex="1">
          <mxGeometry x="620" y="420" width="190" height="140" as="geometry" />
        </mxCell>
        <mxCell id="BPgtZbZkgOXDXsZjRvmb-35" value="" style="rounded=0;whiteSpace=wrap;html=1;rotation=90;fillColor=#dae8fc;strokeColor=#6c8ebf;" parent="1" vertex="1">
          <mxGeometry x="340" y="420" width="190" height="140" as="geometry" />
        </mxCell>
        <mxCell id="BPgtZbZkgOXDXsZjRvmb-33" value="" style="rounded=0;whiteSpace=wrap;html=1;rotation=90;fillColor=#dae8fc;strokeColor=#6c8ebf;" parent="1" vertex="1">
          <mxGeometry x="160" y="420" width="190" height="140" as="geometry" />
        </mxCell>
        <mxCell id="BPgtZbZkgOXDXsZjRvmb-15" value="" style="rounded=0;whiteSpace=wrap;html=1;fillColor=#d5e8d4;strokeColor=#82b366;" parent="1" vertex="1">
          <mxGeometry x="50" y="210" width="740" height="130" as="geometry" />
        </mxCell>
        <mxCell id="BPgtZbZkgOXDXsZjRvmb-8" style="edgeStyle=orthogonalEdgeStyle;rounded=0;orthogonalLoop=1;jettySize=auto;html=1;entryX=0.5;entryY=0;entryDx=0;entryDy=0;" parent="1" source="BPgtZbZkgOXDXsZjRvmb-4" edge="1">
          <mxGeometry relative="1" as="geometry">
            <mxPoint x="250" y="230" as="targetPoint" />
          </mxGeometry>
        </mxCell>
        <mxCell id="BPgtZbZkgOXDXsZjRvmb-9" style="edgeStyle=orthogonalEdgeStyle;rounded=0;orthogonalLoop=1;jettySize=auto;html=1;" parent="1" source="BPgtZbZkgOXDXsZjRvmb-4" edge="1">
          <mxGeometry relative="1" as="geometry">
            <mxPoint x="420" y="230" as="targetPoint" />
            <Array as="points">
              <mxPoint x="420" y="140" />
              <mxPoint x="420" y="140" />
            </Array>
          </mxGeometry>
        </mxCell>
        <mxCell id="BPgtZbZkgOXDXsZjRvmb-10" style="edgeStyle=orthogonalEdgeStyle;rounded=0;orthogonalLoop=1;jettySize=auto;html=1;entryX=0.87;entryY=0;entryDx=0;entryDy=0;entryPerimeter=0;" parent="1" source="BPgtZbZkgOXDXsZjRvmb-4" edge="1" target="BPgtZbZkgOXDXsZjRvmb-15">
          <mxGeometry relative="1" as="geometry">
            <mxPoint x="590" y="230" as="targetPoint" />
            <Array as="points">
              <mxPoint x="694" y="105" />
            </Array>
          </mxGeometry>
        </mxCell>
        <mxCell id="BPgtZbZkgOXDXsZjRvmb-4" value="DMS" style="ellipse;shape=cloud;whiteSpace=wrap;html=1;fillColor=#1ba1e2;strokeColor=#006EAF;fontColor=#ffffff;" parent="1" vertex="1">
          <mxGeometry x="370" y="70" width="100" height="70" as="geometry" />
        </mxCell>
        <mxCell id="BPgtZbZkgOXDXsZjRvmb-12" value="&lt;span&gt;CK-Cluster1&lt;/span&gt;" style="shape=cube;whiteSpace=wrap;html=1;boundedLbl=1;backgroundOutline=1;darkOpacity=0.05;darkOpacity2=0.1;fillColor=#ffe6cc;strokeColor=#d79b00;" parent="1" vertex="1">
          <mxGeometry x="190" y="230" width="120" height="90" as="geometry" />
        </mxCell>
        <mxCell id="BPgtZbZkgOXDXsZjRvmb-13" value="&lt;span&gt;CK-Cluster2&lt;/span&gt;" style="shape=cube;whiteSpace=wrap;html=1;boundedLbl=1;backgroundOutline=1;darkOpacity=0.05;darkOpacity2=0.1;fillColor=#ffe6cc;strokeColor=#d79b00;" parent="1" vertex="1">
          <mxGeometry x="364" y="230" width="120" height="90" as="geometry" />
        </mxCell>
        <mxCell id="BPgtZbZkgOXDXsZjRvmb-14" value="&lt;span&gt;CK-ClusterN&lt;/span&gt;" style="shape=cube;whiteSpace=wrap;html=1;boundedLbl=1;backgroundOutline=1;darkOpacity=0.05;darkOpacity2=0.1;fillColor=#ffe6cc;strokeColor=#d79b00;" parent="1" vertex="1">
          <mxGeometry x="630" y="230" width="120" height="90" as="geometry" />
        </mxCell>
        <mxCell id="BPgtZbZkgOXDXsZjRvmb-17" value="K8S" style="text;html=1;strokeColor=none;fillColor=none;align=center;verticalAlign=middle;whiteSpace=wrap;rounded=0;" parent="1" vertex="1">
          <mxGeometry x="70" y="265" width="40" height="20" as="geometry" />
        </mxCell>
        <mxCell id="BPgtZbZkgOXDXsZjRvmb-18" value="user client" style="whiteSpace=wrap;html=1;aspect=fixed;" parent="1" vertex="1">
          <mxGeometry x="195" y="425" width="100" height="100" as="geometry" />
        </mxCell>
        <mxCell id="BPgtZbZkgOXDXsZjRvmb-24" value="user client" style="whiteSpace=wrap;html=1;aspect=fixed;" parent="1" vertex="1">
          <mxGeometry x="205" y="435" width="100" height="100" as="geometry" />
        </mxCell>
        <mxCell id="BPgtZbZkgOXDXsZjRvmb-25" value="user client" style="whiteSpace=wrap;html=1;aspect=fixed;" parent="1" vertex="1">
          <mxGeometry x="215" y="445" width="100" height="100" as="geometry" />
        </mxCell>
        <mxCell id="BPgtZbZkgOXDXsZjRvmb-26" value="user client" style="whiteSpace=wrap;html=1;aspect=fixed;" parent="1" vertex="1">
          <mxGeometry x="375" y="425" width="100" height="100" as="geometry" />
        </mxCell>
        <mxCell id="BPgtZbZkgOXDXsZjRvmb-27" value="user client" style="whiteSpace=wrap;html=1;aspect=fixed;" parent="1" vertex="1">
          <mxGeometry x="385" y="435" width="100" height="100" as="geometry" />
        </mxCell>
        <mxCell id="BPgtZbZkgOXDXsZjRvmb-28" value="user client" style="whiteSpace=wrap;html=1;aspect=fixed;" parent="1" vertex="1">
          <mxGeometry x="395" y="445" width="100" height="100" as="geometry" />
        </mxCell>
        <mxCell id="BPgtZbZkgOXDXsZjRvmb-29" value="user client" style="whiteSpace=wrap;html=1;aspect=fixed;" parent="1" vertex="1">
          <mxGeometry x="655" y="425" width="100" height="100" as="geometry" />
        </mxCell>
        <mxCell id="BPgtZbZkgOXDXsZjRvmb-30" value="user client" style="whiteSpace=wrap;html=1;aspect=fixed;" parent="1" vertex="1">
          <mxGeometry x="665" y="435" width="100" height="100" as="geometry" />
        </mxCell>
        <mxCell id="BPgtZbZkgOXDXsZjRvmb-31" value="user client" style="whiteSpace=wrap;html=1;aspect=fixed;" parent="1" vertex="1">
          <mxGeometry x="675" y="445" width="100" height="100" as="geometry" />
        </mxCell>
        <mxCell id="BPgtZbZkgOXDXsZjRvmb-36" style="edgeStyle=orthogonalEdgeStyle;rounded=0;orthogonalLoop=1;jettySize=auto;html=1;entryX=0;entryY=0;entryDx=70;entryDy=90;entryPerimeter=0;" parent="1" source="BPgtZbZkgOXDXsZjRvmb-33" target="BPgtZbZkgOXDXsZjRvmb-12" edge="1">
          <mxGeometry relative="1" as="geometry" />
        </mxCell>
        <mxCell id="BPgtZbZkgOXDXsZjRvmb-37" style="edgeStyle=orthogonalEdgeStyle;rounded=0;orthogonalLoop=1;jettySize=auto;html=1;entryX=0;entryY=0;entryDx=70;entryDy=90;entryPerimeter=0;" parent="1" source="BPgtZbZkgOXDXsZjRvmb-35" target="BPgtZbZkgOXDXsZjRvmb-13" edge="1">
          <mxGeometry relative="1" as="geometry" />
        </mxCell>
        <mxCell id="BPgtZbZkgOXDXsZjRvmb-38" style="edgeStyle=orthogonalEdgeStyle;rounded=0;orthogonalLoop=1;jettySize=auto;html=1;" parent="1" source="BPgtZbZkgOXDXsZjRvmb-34" target="BPgtZbZkgOXDXsZjRvmb-14" edge="1">
          <mxGeometry relative="1" as="geometry" />
        </mxCell>
        <mxCell id="BPgtZbZkgOXDXsZjRvmb-39" value="User 1 VPC" style="text;html=1;strokeColor=none;fillColor=none;align=center;verticalAlign=middle;whiteSpace=wrap;rounded=0;" parent="1" vertex="1">
          <mxGeometry x="205" y="560" width="95" height="20" as="geometry" />
        </mxCell>
        <mxCell id="BPgtZbZkgOXDXsZjRvmb-40" value="User 2 VPC" style="text;html=1;strokeColor=none;fillColor=none;align=center;verticalAlign=middle;whiteSpace=wrap;rounded=0;" parent="1" vertex="1">
          <mxGeometry x="376.5" y="565" width="95" height="20" as="geometry" />
        </mxCell>
        <mxCell id="BPgtZbZkgOXDXsZjRvmb-41" value="User N VPC" style="text;html=1;strokeColor=none;fillColor=none;align=center;verticalAlign=middle;whiteSpace=wrap;rounded=0;" parent="1" vertex="1">
          <mxGeometry x="670" y="560" width="95" height="20" as="geometry" />
        </mxCell>
        <mxCell id="BPgtZbZkgOXDXsZjRvmb-42" value="授信网卡" style="text;html=1;strokeColor=none;fillColor=none;align=center;verticalAlign=middle;whiteSpace=wrap;rounded=0;" parent="1" vertex="1">
          <mxGeometry x="250" y="340" width="75" height="20" as="geometry" />
        </mxCell>
        <mxCell id="BPgtZbZkgOXDXsZjRvmb-43" value="授信网卡" style="text;html=1;strokeColor=none;fillColor=none;align=center;verticalAlign=middle;whiteSpace=wrap;rounded=0;" parent="1" vertex="1">
          <mxGeometry x="430" y="340" width="75" height="20" as="geometry" />
        </mxCell>
        <mxCell id="BPgtZbZkgOXDXsZjRvmb-44" value="授信网卡" style="text;html=1;strokeColor=none;fillColor=none;align=center;verticalAlign=middle;whiteSpace=wrap;rounded=0;" parent="1" vertex="1">
          <mxGeometry x="677.5" y="340" width="75" height="20" as="geometry" />
        </mxCell>
      </root>
    </mxGraphModel>
  </diagram>
</mxfile>
